<?xml version="1.0" encoding="UTF-8" standalone="no"?>
<svg
   height="511pt"
   viewBox="0 -4 511.99686 511"
   width="511pt"
   version="1.1"
   id="svg8"
   sodipodi:docname="grape.svg"
   inkscape:version="1.2.1 (9c6d41e410, 2022-07-14)"
   xmlns:inkscape="http://www.inkscape.org/namespaces/inkscape"
   xmlns:sodipodi="http://sodipodi.sourceforge.net/DTD/sodipodi-0.dtd"
   xmlns="http://www.w3.org/2000/svg"
   xmlns:svg="http://www.w3.org/2000/svg">
  <defs
     id="defs12" />
  <sodipodi:namedview
     id="namedview10"
     pagecolor="#ffffff"
     bordercolor="#000000"
     borderopacity="0.25"
     inkscape:showpageshadow="2"
     inkscape:pageopacity="0.0"
     inkscape:pagecheckerboard="0"
     inkscape:deskcolor="#d1d1d1"
     inkscape:document-units="pt"
     showgrid="false"
     inkscape:zoom="0.868662"
     inkscape:cx="469.68787"
     inkscape:cy="311.97405"
     inkscape:window-width="1920"
     inkscape:window-height="1017"
     inkscape:window-x="-8"
     inkscape:window-y="-8"
     inkscape:window-maximized="1"
     inkscape:current-layer="svg8" />
  <path
     d="m 350.80078,271.74219 c 13.41474,-9.2517 22.00579,-22.51411 26.08341,-37.04328 3.82993,-13.64661 3.67812,-28.41075 -0.19832,-42.01876 -3.04301,-10.68229 -8.38123,-20.65214 -15.89029,-28.80968 -7.72588,-8.39309 -17.74977,-14.8677 -29.93621,-18.22594 -3.91796,-1.08203 -19.4414,-0.49219 -21.32421,-2.28125 -3.14453,-2.98437 -4.9961,-17.28906 -7.41797,-21.73437 C 295.21094,108.94141 284.21484,98.730469 271.22656,92.46875 244.19141,79.4375 211.50781,85.058594 191.37109,107.61328 171.97266,81.355469 138.08984,73.390625 108.78516,87.515625 95.804688,93.773438 84.578125,103.84375 77.285156,116.30078 c -3.742187,6.39063 -6.417968,13.37109 -7.871094,20.63281 -1.75,8.73828 0.476563,16.73438 -0.203124,25.24219 -0.472657,5.87891 0.882812,4.69141 -5.542969,7.15625 -3.648438,1.39844 -7.160157,3.13672 -10.507813,5.15625 -7.402344,4.47656 -13.820312,10.37891 -19,17.30078 -9.914062,13.2461 -15.035156,29.92578 -14.492187,46.44922 0.25,7.54297 1.671875,15.07422 4.28125,22.15625 1.527343,4.14453 3.460937,8.14453 5.75,11.91797 0.964843,1.58984 3.308593,4.04297 3.816406,5.61328 1.472656,4.56641 1.546875,0.94922 -0.691406,5.30469 -4.207031,8.1875 -11.878907,14.12109 -15.617188,23.1914 -3.769531,9.14063 -5.640625,18.96485 -5.519531,28.85547 0.113281,9.28125 1.964844,18.54297 5.582031,27.10157 1.722657,4.07812 4.511719,7.6289 6.292969,11.59765 1.5,3.34766 2.722656,2.96485 1.921875,5.84375 -0.363281,1.3125 -5.988281,5.44922 -6.8125,6.33203 C 6.390625,399.33203 -0.128906,417.24219 0,435.1875 c 0.28125,38.73828 32.1875,71.26172 71.460938,69.21484 17.636718,-0.91797 34.714842,-8.70312 46.746092,-21.67187 1.78125,-1.91797 6.72266,-11.24219 8.79688,-11.875 1.6914,-0.51953 10.4375,4.00781 12.20703,4.47265 9.25781,2.41407 18.92578,2.69922 28.33594,1.03125 17.48828,-3.10546 33.53515,-13.13281 43.96875,-27.50781 2.86328,-3.94531 4.48828,-8.77734 7.26953,-12.64062 0.65625,-0.90625 1.17578,-4.73828 2.0664,-5.20313 0.4375,-0.23047 6.53907,1.78516 7.77344,2.02735 10.25,2.01171 20.97656,1.5039 31.02344,-1.31641 10.65625,-2.98828 20.53125,-8.57422 28.60937,-16.125 2.21875,-2.07813 8.92188,-12.95313 11.35938,-13.78516 2.75,-0.9414 11.85937,3.15235 15.0664,3.50782 21.21485,2.34375 42.80079,-6.07813 57.36719,-21.5586 31.80469,-33.80078 20.94922,-92.27344 -21.25,-112.01562 8.18447,-7.23749 7.06762,-4.96272 0,0 z m -56.32812,-71.71485 c 2.46875,-2.88672 4.96875,-6.30468 6.66796,-9.71484 0.57813,-1.00781 1.125,-2.03125 1.64063,-3.07422 2.42578,-4.86328 4.35937,-9.92187 5.625,-15.21875 1.74609,-7.28516 0.17578,-8.35547 7.44922,-8.97656 6.875,-0.58594 15.1875,2.76562 20.97656,6.24219 11.52344,6.91406 19.05078,18.96875 22.01953,31.90625 2.88282,12.58203 1.64063,26.41406 -4.36328,37.93359 -3.22656,6.1875 -7.80469,11.61328 -13.46094,15.71875 -1.875,1.36328 -18.62109,9.39453 -18.62109,7.62891 0.0195,-0.32813 0.0312,-0.66016 0.0312,-0.9961 0.0586,-2.35156 0.0117,-4.79297 -0.20703,-7.14062 -0.0195,-0.35547 -0.0508,-0.71094 -0.0898,-1.06641 0,-0.0469 -0.008,-0.0977 -0.008,-0.15625 -2.14843,-20.4375 -12.48437,-39.19531 -29.41797,-51 0.58594,-0.69531 1.17188,-1.39062 1.75782,-2.08594 0.29687,-0.34765 -0.5586,0.70703 0,0 2.52734,-2.95703 -0.5586,0.70703 0,0 z m -1.42579,29.67969 c 0.15625,0.19531 0.29688,0.38281 0.42188,0.58203 2.47656,3.47266 4.45312,7.28906 5.96875,11.26953 0.17578,0.45313 0.34375,0.90625 0.49219,1.36719 0.0781,0.1875 0.13672,0.375 0.19531,0.5625 0.10937,0.30469 0.20703,0.60938 0.29687,0.92578 1.10157,3.19531 1.58985,6.58594 2.06641,9.91797 0.0469,0.47266 0.0977,0.94531 0.125,1.42188 0.0312,0.22656 0.0391,0.45312 0.0508,0.67968 0.0391,0.45313 0.0586,0.90625 0.0781,1.35938 0.0117,0.10547 0.0117,0.22656 0.0117,0.33203 0.20312,4.27344 0.0859,9.45703 -1.27735,13.55469 -0.0898,0.38672 -0.14844,0.76172 -0.17969,1.14453 -7.16015,17.22656 -18.16796,32.53515 -37.42968,36.625 -0.0117,0 -0.0312,0.0117 -0.0391,0.0117 -12.03906,2.57031 -26.51562,0.39843 -36.52734,-7.1211 -0.80469,-0.52343 -1.57422,-1.07422 -2.28906,-1.625 -0.0117,-0.0117 -0.0312,-0.0234 -0.0391,-0.0312 -20.55079,-15.62109 -24.30469,-43.79687 -12.08985,-65.83593 12.66016,-22.83594 35.66797,-29.5586 59.52735,-21.58204 0.52343,0.21875 1.03125,0.45313 1.54296,0.69141 0.0117,0 0.0234,0 0.0312,0.008 0.5,0.23828 1.00391,0.47266 1.4961,0.73047 0.0859,0.0391 0.17578,0.0898 0.26562,0.12891 1.42578,0.73047 2.8125,1.53515 4.14844,2.41015 1.22656,0.79297 2.41797,1.63672 3.57031,2.53516 1.09375,0.84375 2.14844,1.74219 3.15235,2.6875 0.1875,0.15625 0.36718,0.32422 0.54297,0.50391 1.29687,1.125 5.44921,6.13672 5.88671,6.74609 0.15625,0.19531 -0.57031,-0.79687 0,0 z M 188.05078,240.5625 c -0.63281,2.21484 -1.14453,4.46094 -1.54687,6.74609 -14.21094,0.38672 -26.78125,-5.94922 -36.60547,-15.82031 -6.125,-6.67969 -10.35157,-14.93359 -12.22266,-23.86719 -9.35547,-24.41797 13.30859,-54.10156 36.09375,-59.82422 -2.57422,24.97657 8.87891,50.52735 29.41016,65.03516 -7.08203,7.98828 -12.32422,17.59766 -15.17969,27.88672 0.39844,-1.42578 0.8125,-2.84766 1.20312,-4.27734 -0.38281,1.375 -0.76953,2.75 -1.15234,4.12109 -0.63281,2.21484 2.88672,-10.30469 0,0 z m 14.58984,65.98047 h -0.0117 v 0.0117 c -11.33594,7.99609 -21.53516,20.42578 -25.39454,33.97656 h -0.0117 c -1.61719,-0.39453 -3.21094,-0.85156 -4.78907,-1.37891 -4.52343,-1.51172 -9.41406,-1.84765 -14.15625,-1.93359 -1.89843,-0.0391 -3.79687,-0.0117 -5.69531,0.082 -1.46875,0.25391 -2.94141,0.38281 -4.42187,0.38281 -1.20704,0.0586 -2.39063,0.23828 -3.55079,0.53125 -0.0781,0.0117 -0.16796,0.0195 -0.24609,0.0391 -0.50391,0.19921 -1.01953,0.29687 -1.54297,0.29687 -16.37109,-8.94531 -27.15234,-27.35156 -26.22265,-46.0625 v -0.12891 c 0.0234,-0.51562 0.0469,-1.03125 0.0664,-1.54687 0,-0.0586 0,-0.11719 0.0117,-0.16797 0.0195,-0.38281 0.0508,-0.75781 0.0781,-1.13281 0,-0.0469 0.0117,-0.0977 0.0117,-0.14844 0.125,-1.41406 0.24609,-3.26953 0.60937,-4.72656 0.33203,-1.89844 0.76563,-3.76172 1.32813,-5.60547 0.0195,-0.0586 0.0391,-0.12891 0.0586,-0.1875 0.0195,-0.11719 0.0586,-0.22656 0.0977,-0.34375 0.97265,-3.45313 2.46093,-6.41016 4.03906,-9.57422 0.78906,-1.43359 1.64062,-2.82031 2.55859,-4.16797 2.61719,-4.00781 5.92969,-7.60156 9.67578,-10.58203 1.05469,-1.10937 2.2461,-1.99609 3.57813,-2.66016 0.41015,-0.28515 0.82422,-0.55859 1.24609,-0.8164 0.29688,-0.19531 0.59375,-0.375 0.88672,-0.55078 l 0.0117,0.008 c 12.40625,10.88672 28.14844,16.86719 44.57031,16.86719 h 0.29297 c 0.31641,3.8125 0.74609,9.34375 2.47656,12.8164 0.20313,0.72266 0.42188,1.44141 0.66016,2.15625 0.0195,0.0664 0.0508,0.12891 0.0703,0.19532 0.23828,0.72656 0.48828,1.44921 0.74609,2.16796 2.94922,8.125 7.34375,15.60938 12.96875,22.1836 z m -3.46093,-176.00391 c 0.0391,-0.0898 0.0859,-0.17969 0.1289,-0.26562 0.008,-0.0195 0.0273,-0.0508 0.0391,-0.0703 23.85546,-43.656245 90.92578,-24.19531 91.45703,24.29297 0,0.10547 0,0.22657 0.0117,0.33594 v 0.14453 c 0,11.61328 -3.9961,22.8086 -11.05079,31.95703 -0.0586,0.0703 -0.10937,0.13672 -0.16796,0.20703 -1.64063,2.07813 -3.4961,4.01172 -5.44532,5.79297 -13.2539,-4.34765 -31.41797,-5.10156 -44.25781,1.33985 -1.85547,0.6914 -9.20703,5.39843 -10.85547,5.30859 -2.58594,-0.14062 -6.58984,-4.36328 -8.37109,-5.89453 -5.76563,-4.95313 -10.39453,-11.22266 -13.40625,-18.21094 -0.0312,-0.0781 -0.0586,-0.15625 -0.0977,-0.23437 -6.04687,-14.26953 -4.58594,-32.51172 1.69531,-44.11719 -0.57031,1.05859 -0.46484,0.85937 0.32032,-0.58594 0.0391,-0.0898 -1.52344,2.81641 0,0 z M 136.71484,99.488281 c 17.97266,0 34.375,10.187499 42.89844,26.281249 -0.082,0.16016 -0.14844,0.31641 -0.21875,0.48438 -0.10547,0.22656 -0.20703,0.45312 -0.30469,0.6875 -34.93359,3.26171 -61.76953,34.5625 -62.19921,69.20312 -4.02735,-1.69922 -7.95313,-4.21094 -11.20704,-7.13281 -0.36328,-0.29297 -0.71875,-0.60938 -1.0625,-0.92578 -36.132809,-27.125 -10.605465,-88.597659 32.09375,-88.597659 z M 77.671875,185.65234 c 0.05859,0.10938 0.128906,0.23047 0.195313,0.32813 1.203124,2.08984 3.015624,5.41797 4.828124,7.23047 0.265626,0.36328 0.550782,0.72656 0.835938,1.08203 0.175781,0.23828 0.363281,0.46484 0.5625,0.6914 0.261719,0.33594 0.527344,0.66016 0.8125,0.9961 0,0.008 0,0.008 0.01172,0.008 5.320312,6.42969 12.371093,12.55078 19.95703,16.1875 3.96094,2.13281 12.10547,3.14844 15.21484,5.89844 3.16016,2.80078 5.29688,12.96484 7.83594,16.96484 -3.45312,2.125 -6.68359,4.85938 -9.55078,7.73047 -0.15625,0.14063 -0.3125,0.28906 -0.46094,0.44531 -0.27343,0.25391 -0.53906,0.51953 -0.79687,0.79688 -4.63281,4.64062 -8.44141,9.96875 -11.60156,15.70312 -0.0469,0.0781 -0.0859,0.16797 -0.125,0.2461 -0.98047,0.83984 -1.46875,1.80078 -1.46485,2.875 -0.22656,0.52343 -0.46484,1.03906 -0.71875,1.54687 -0.0117,0.0195 -0.0195,0.0312 -0.0195,0.0508 -0.70703,1.55078 -1.35156,3.125 -1.92969,4.72657 -0.46484,1.28125 -1.05468,2.72265 -1.347653,4.07812 -0.121094,0.39453 -0.234375,0.79297 -0.34375,1.19141 -0.117187,0.38281 -0.222656,0.76953 -0.3125,1.16406 -0.03906,0.125 -0.07031,0.25391 -0.09766,0.38281 -0.08984,0.30469 -0.167969,0.60938 -0.238281,0.91407 -0.0078,0.0586 -0.02734,0.10937 -0.03906,0.16796 -0.539062,2.22657 -0.726562,4.54297 -1.277344,6.75782 -0.0078,0.0508 -0.0078,0.0898 -0.01953,0.14062 -0.01172,0.0352 -0.01172,0.0781 -0.01172,0.11719 -0.01953,0.0781 -0.01953,0.15625 -0.02734,0.23437 l -0.03125,0.23829 h -0.0078 c -0.535156,0.0781 -1.066406,0.17968 -1.59375,0.30468 -3.851562,0.64063 -7.925781,0.94922 -11.808594,0.54297 -0.03906,0 -0.08984,-0.0117 -0.128906,-0.0117 -0.472656,-0.0391 -0.945312,-0.0781 -1.40625,-0.1289 -0.09766,-0.0195 -0.1875,-0.0274 -0.273437,-0.0274 -4.039063,-0.52734 -8.011719,-1.5039 -11.820313,-2.95703 -1.796875,-0.70703 -3.542968,-1.51953 -5.238281,-2.43359 -0.867187,-0.56641 -1.761719,-1.08203 -2.683594,-1.54688 -0.5,-0.30859 -0.992187,-0.6289 -1.476562,-0.96484 -0.375,-0.25391 -0.757813,-0.51172 -1.132813,-0.77734 -0.01953,-0.0195 -0.03906,-0.0312 -0.05859,-0.0391 -0.960937,-0.78125 -1.9375,-1.54297 -2.929687,-2.28515 -30.484375,-25.61719 -18.882813,-79.89844 20.71875,-88.57032 -0.164063,-0.30078 -8.636719,1.875 -9.804687,2.17188 3.242187,-0.82031 6.542968,-1.45703 9.804687,-2.17188 0.05859,0.10938 -22.183594,4.85938 0,0 z M 50.445312,293.91406 c 3.449219,2.29297 10.074219,7.25 14.316407,7.25 6.058593,2.16016 12.679687,3.75391 19.132812,3.96094 h 0.01172 c 3.222656,0.21094 6.988281,0.46484 10.1875,-0.17578 2.421875,-1.50781 3.628906,-1.64844 3.625,-0.42578 1.585938,10.32422 5.507809,22.82031 12.527339,30.85547 0,0.008 0.0117,0.0195 0.0117,0.0195 3.08203,4.29687 6.57813,8.26562 10.60547,11.70312 0.0391,0.0274 0.0703,0.0664 0.1211,0.0977 -10.06641,6.16406 -29.027348,22.67578 -29.027348,35.90625 -2.34375,0.58594 -4.777343,1.07812 -7.195312,1.28125 -0.199219,0.0312 -0.394531,0.0469 -0.589844,0.0586 -48.230469,4.40235 -70.789063,-61.47265 -33.726563,-90.53125 0.08203,0.0547 -4.5,4.78125 -5.183593,4.32813 -0.117188,-0.0781 6.648437,-5.47657 5.183593,-4.32813 1.621094,1.07813 -12.074218,9.46875 0,0 z m 17.777344,191.27735 c -25.398437,0 -44.796875,-20.14454 -47.828125,-44.69532 -1.417969,-11.51562 0.777344,-23.44531 6.878907,-33.38281 2.507812,-4.08203 7.152343,-11.39453 11.808593,-12.97656 5.480469,-1.86328 15.6875,5.35547 22.269531,7.55859 7.230469,2.06641 15.125,3.19922 22.660157,2.51172 1.273437,-0.10937 2.542969,-0.21875 3.816406,-0.32422 -0.5,8.48828 0.558594,17.73438 3.460937,25.73828 1.09375,3.47657 2.402344,7.3125 4.335938,10.41016 2.621094,5.15625 5.88281,10.48437 9.98828,14.60156 5.04297,5.82813 5.58594,5.52735 0.57422,11.92188 -2.87891,3.67187 -6.238281,6.86718 -10.023438,9.58593 -8.140624,5.84766 -17.902343,9.05079 -27.941406,9.05079 z M 204.45703,415.84766 c 0,0.0195 -0.008,0.0312 -0.008,0.0508 -6.21875,37.96875 -52.85156,55.19531 -81.01953,28.32422 -12.66797,-12.07813 -20.03906,-30 -15.41406,-47.32032 4.37109,-16.37109 17.83593,-35.8164 36.12109,-38.43359 9.07812,-2.41016 27.53515,-3.1875 34.96484,4.25391 0.0195,0.0117 0.0312,0.0195 0.0508,0.0312 h 0.008 c 0.0117,0 0.0117,0.0117 0.0195,0.0117 18.82031,10.32422 28.51172,33.73047 25.38281,52.47657 0.16797,-1.02735 0.13672,-0.82422 -0.10547,0.60547 0,0.0195 0.46484,-2.76563 0,0 z m 37.31641,-1.19141 c -5.83985,0 -11.64063,-1.08203 -17.08203,-3.17188 0.15625,-2.69921 0.28515,-5.8164 -0.0195,-8.55078 -0.17187,-2.92968 -0.64843,-5.78515 -1.0625,-8.6875 -0.11718,-0.61328 -0.23437,-1.22265 -0.36328,-1.83203 -0.008,-0.0195 -0.008,-0.0391 -0.0195,-0.0586 -0.10937,-0.53516 -0.22656,-1.06641 -0.35547,-1.58594 -0.008,-0.0508 -0.0195,-0.0898 -0.0273,-0.14062 -2.46094,-9.25 -7.52344,-24.96485 -16.00781,-30.64454 -0.39453,-0.45312 -0.79688,-0.89453 -1.21875,-1.33203 -0.19922,-0.22656 -0.41407,-0.45312 -0.64844,-0.67968 -2.96875,-3.20313 -6.41797,-5.98828 -9.96094,-8.51954 0.0312,-0.10937 0.0586,-0.20703 0.0977,-0.30468 0.0781,-0.29688 0.16797,-0.58203 0.26562,-0.86719 0.91407,-3.05078 2.26172,-6.20703 3.86328,-8.98438 2.23047,-4.21484 5.125,-8.08984 8.55469,-11.40625 0.26563,-0.27734 0.53906,-0.54296 0.81641,-0.79687 0.2539,-0.25781 0.51172,-0.49609 0.77734,-0.73047 0.21485,-0.20703 0.44141,-0.40234 0.66797,-0.58984 0.11719,-0.1211 0.23438,-0.22657 0.35547,-0.31641 0.23437,-0.20703 0.46094,-0.40234 0.69531,-0.58984 2.14844,-1.87891 4.60938,-3.54688 7.10938,-4.9375 10.83984,6.78906 23.08203,10.19531 35.85937,10.26562 -0.0117,0.12891 -0.0195,0.26563 -0.0391,0.40625 -0.64844,9.98438 0.80469,20.02735 4.20703,29.42969 1.90234,5.25781 7.08203,19.08594 12.60547,21.86328 0.14844,0.17578 0.29687,0.35547 0.46094,0.53125 0,0.0117 0.0117,0.0312 0.0391,0.0391 l 0.0117,0.0117 c 0.30469,0.35547 0.61719,0.70703 0.94531,1.05078 v 0.0117 c 1.99219,2.21875 4.13672,4.28906 6.42188,6.20703 4.27343,1.46875 4.64843,3.49219 1.1289,6.06641 -1.46094,3.68359 -6.99219,7.43359 -10.10156,9.67578 -8.13672,5.8711 -17.91016,9.16797 -27.97656,9.16797 z m 80.63281,-28.55469 c -30.46094,0 -52.78125,-29.7539 -48.16797,-59.04687 8.88672,-2.80469 20.19141,-8.04688 26.16406,-15.53516 0.69532,-0.65625 1.3711,-1.32422 2.03516,-2.01172 0.11719,-0.10547 0.22656,-0.21484 0.32422,-0.33203 0.92187,-0.94922 1.80469,-1.92578 2.65234,-2.9375 0.26563,-0.29687 0.51172,-0.58984 0.75781,-0.89453 0.10938,-0.12109 0.20704,-0.23828 0.30469,-0.36719 1.46485,-1.76562 3.55078,-4.19922 4.6211,-6.34375 2.55078,-3.86328 4.80859,-8.1289 6.42968,-12.46875 0.1211,-0.26562 0.21875,-0.54297 0.32422,-0.82031 27.90625,-2.73828 52.41406,20.89844 53.36328,48.39062 0.9375,27.19141 -21.07812,52.36719 -48.80859,52.36719 z"
     id="path2"
     style="mix-blend-mode:normal;fill:#000000;fill-opacity:1;stroke:#6d071a;stroke-width:0;stroke-dasharray:none;stroke-opacity:1"
     sodipodi:nodetypes="cssscccccccccccccccccccccccccccccccccccccccccccccccccccccccccccccccccccccccccccccccccccccccccccccccccccccccccccccccccccccccccccccccccscccccccsccccsccccccccccsssccccccsccccccccccccccccccccccccccccccccccccccccccccccccscccccccccccccccssscccccccccccssccccccscccssscccccccccccccccccccccccccccccccccssscccccccccccs" />
  <path
     d="m436.164062 144.464844c-5.429687 0-9.835937-4.410156-9.835937-9.851563 0-5.4375 4.398437-9.847656 9.828125-9.847656h.007812c5.433594 0 9.832032 4.410156 9.832032 9.847656 0 5.441407-4.398438 9.851563-9.832032 9.851563zm0 0"
     id="path4" />
  <path
     d="m507.773438 167.695312c-8.789063-36.222656-35.160157-67.203124-78.429688-92.183593 6.222656-9.453125 38.347656-71.0625 15.484375-74.859375-13.910156-2.308594-13.835937 21.902344-16.429687 30.492187-4.378907 14.5-10.917969 28.492188-20.304688 40.4375-.007812 0-.007812 0-.019531.007813-18.230469 23.917968-48.546875 37.472656-78.3125 37.472656-8.421875-.457031-13.558594 10.085938-7.871094 16.394531 3.921875 4.351563 10.558594 3.425781 15.78125 3.09375 19.242187-1.210937 38.539063-7.289062 54.976563-17.359375-18.984376 70.296875 27.625 122.894532 83.113281 158.519532 0 0 .007812.011718.019531.011718.097656.058594.1875.117188.292969.175782 1.621093 1.003906 3.902343 1.542968 5.761719 1.332031.148437 0 .296874-.019531.453124-.050781.359376-.035157.710938-.097657 1.0625-.1875.605469-.121094 1.226563-.367188 1.789063-.621094.070313-.019532.136719-.058594.199219-.089844.066406-.027344.136718-.058594.195312-.097656 1.371094-.6875 2.5625-1.726563 3.472656-2.964844.035157-.046875.078126-.105469.117188-.15625 1.292969-1.863281 31.578125-46.09375 18.648438-99.367188-8.789063-36.222656 12.929687 53.273438 0 0zm-24.511719 67.578126c-5.246094-16.757813-10.542969-33.507813-16.21875-50.125-2.734375-8.019532-6.074219-27.601563-16.59375-28.785157-17.171875-1.925781-7.84375 18.511719-5.054688 26.316407 6.390625 17.871093 12.035157 36.03125 17.730469 54.128906-22.128906-17.109375-43.28125-38.65625-51.746094-66.042969-8.175781-26.457031-1.585937-53.082031 8.335938-78.085937 52.070312 30.136718 87.253906 81.429687 63.546875 142.59375-8.199219-26.195313 0 0 0 0zm0 0"
     id="path6"
     style="stroke:#24651a;stroke-opacity:1;stroke-width:0;stroke-dasharray:none" />
  <path
     style="fill:#6d071a;fill-opacity:1;stroke:#6d071a;stroke-width:1.08319;stroke-dasharray:none;stroke-opacity:1"
     d=""
     id="path1088"
     transform="matrix(0.75146312,0,0,0.75146312,0,-4.49843)" />
  <path
     style="fill:#24651a;fill-opacity:1;stroke:#24651a;stroke-width:2.71333335;stroke-dasharray:none;stroke-opacity:1"
     d="m 604.38911,308.59218 c -14.99117,-12.7919 -29.89122,-29.22942 -39.22246,-43.26966 -8.79551,-13.23415 -16.41967,-31.87018 -18.92318,-46.25472 -2.62083,-15.05858 -1.34465,-36.97477 3.22329,-55.35448 2.82198,-11.35458 9.4748,-30.62132 10.57356,-30.62132 1.38411,0 16.97652,10.40977 25.64586,17.12165 9.86747,7.63948 26.24141,23.6115 33.35213,32.53346 15.07352,18.91306 24.5319,38.28254 29.47681,60.36457 1.64586,7.34978 1.88089,10.54098 1.84905,25.10736 -0.0301,13.78849 -0.33077,18.03075 -1.7306,24.42055 -1.97655,9.02229 -5.28305,20.30587 -5.60561,19.12943 -0.12276,-0.44771 -4.79166,-14.91689 -10.37534,-32.15373 -5.58368,-17.23684 -11.51384,-35.73166 -13.17814,-41.0996 -3.56524,-11.49917 -5.88801,-16.35497 -10.00679,-20.91945 -3.77544,-4.184 -6.96157,-5.54531 -12.96962,-5.54142 -8.31376,0.005 -12.43993,4.26645 -12.43993,12.84665 0,4.95925 1.85396,11.75265 7.71183,28.25823 5.92733,16.70126 20.20988,60.67062 19.83077,61.04974 -0.15919,0.15918 -3.40442,-2.36859 -7.21163,-5.61726 z M 588.29637,196.15154 c 3.16389,-2.34128 5.52999,-7.00595 5.52999,-10.90213 0,-13.79529 -18.32216,-18.69733 -25.06207,-6.70528 -3.76547,6.69975 -0.88434,15.89185 5.93264,18.92781 2.83417,1.2622 11.20815,0.44915 13.59944,-1.3204 z"
     id="path2459"
     transform="matrix(0.75146312,0,0,0.75146312,0,-4.49843)" />
  <path
     style="fill:#24651a;fill-opacity:1;stroke:#24651a;stroke-width:2.2087;stroke-dasharray:none;stroke-opacity:1"
     d="m 608.8857,316.84789 c -17.67531,-14.40451 -37.35476,-35.40236 -46.71991,-49.84988 -8.34532,-12.87423 -15.15536,-28.75552 -18.38661,-42.87831 -3.22277,-14.08572 -3.03811,-34.3935 0.47842,-52.61578 2.8207,-14.61649 12.23483,-43.29603 14.21205,-43.29603 0.52444,0 5.19955,2.71472 10.38912,6.03271 42.35698,27.08125 71.39816,63.24799 81.1468,101.05702 3.49216,13.54394 4.31447,21.58497 3.82064,37.36036 -0.50018,15.97764 -2.08232,24.69271 -7.30269,40.22609 l -3.38403,10.06925 -2.6028,-8.03421 c -1.43154,-4.41881 -6.64587,-20.48868 -11.5874,-35.71083 -4.94152,-15.22214 -10.30947,-32.05124 -11.92879,-37.39798 -6.07188,-20.04857 -11.10454,-26.50245 -20.66626,-26.50245 -3.12711,0 -4.59214,0.45421 -6.34907,1.96843 -2.15907,1.86082 -2.27902,2.317 -2.19383,8.34369 0.0825,5.83443 0.71162,8.13615 7.41643,27.13272 4.02947,11.41661 10.73069,31.56356 14.8916,44.77101 4.16092,13.20744 7.73099,24.47142 7.93351,25.03106 0.72188,1.99483 -1.13546,0.83858 -9.16718,-5.70687 z m 3.73793,-3.11357 -0.78567,-1.9653 -0.0516,2.10287 c -0.0284,1.15659 0.2155,2.36999 0.54196,2.69644 0.96663,0.96663 1.14197,-0.71614 0.29531,-2.83401 z M 584.05664,196.5097 c 3.46005,-0.74205 4.49169,-1.408 6.21485,-4.01188 2.96687,-4.48323 3.26705,-8.53101 0.96011,-12.94655 -3.28894,-6.29513 -11.47514,-8.57439 -17.47584,-4.86575 -7.58,4.68469 -7.24574,17.34951 0.56186,21.28813 3.3094,1.66945 4.22035,1.71959 9.73902,0.53605 z m 28.49215,-22.93637 c 0,-0.12077 -3.57151,-3.69228 -7.93668,-7.93668 l -7.93668,-7.7171 7.7171,7.93668 c 7.16755,7.37151 8.15626,8.30697 8.15626,7.7171 z"
     id="path2530"
     transform="matrix(0.75146312,0,0,0.75146312,0,-4.49843)" />
  <path
     style="fill:#6d071a;stroke:#6d071a;stroke-width:3.25607;stroke-dasharray:none;stroke-opacity:1;fill-opacity:1"
     d="m 101.70361,383.4508 c -12.375297,-3.19972 -21.761376,-8.73947 -30.783254,-18.16856 -20.889259,-21.83212 -23.47082,-57.91945 -6.052141,-84.60219 7.655306,-11.72675 17.532074,-19.71004 30.353804,-24.53466 7.011411,-2.63829 7.350841,-2.68861 8.362521,-1.23976 15.34283,21.97286 26.47618,31.12711 45.23309,37.19231 11.33592,3.66556 11.78328,4.12183 16.99492,17.33343 l 3.5734,9.05861 -6.07306,4.7797 c -13.36192,10.51628 -24.93792,27.54132 -30.37063,44.6666 -0.42608,1.34313 -1.41068,5.55551 -2.18799,9.36084 -1.65678,8.11074 -1.3111,7.91228 -13.94264,8.00422 -5.61667,0.0409 -9.75161,-0.46559 -15.10802,-1.85054 z"
     id="path927"
     transform="matrix(0.75146312,0,0,0.75146312,0,-4.49843)" />
  <path
     style="fill:#6d071a;fill-opacity:1;stroke:#6d071a;stroke-width:3.25607;stroke-dasharray:none;stroke-opacity:1"
     d="m 148.60355,262.72441 c -6.70533,-3.92954 -21.01948,-17.96287 -24.28652,-23.81003 -1.37583,-2.46241 -3.52446,-7.40757 -4.77473,-10.98925 -2.09198,-5.99299 -2.27098,-7.45311 -2.24529,-18.31541 0.0247,-10.4516 0.27881,-12.6225 2.2188,-18.95712 9.97274,-32.5639 37.40143,-53.84455 66.50745,-51.60005 16.40519,1.26508 29.97753,7.73027 41.60432,19.81825 5.33522,5.54684 10.47278,12.70025 10.47278,14.58204 0,0.5367 -1.72552,1.21374 -3.86659,1.51713 -40.39036,5.72334 -73.30232,40.36995 -78.4141,82.54696 -0.5506,4.54303 -1.22748,8.26005 -1.50417,8.26005 -0.2767,0 -2.84707,-1.37365 -5.71195,-3.05257 z"
     id="path1862"
     transform="matrix(0.75146312,0,0,0.75146312,0,-4.49843)" />
  <path
     style="fill:#6d071a;fill-opacity:1;stroke:#6d071a;stroke-width:3.25607;stroke-dasharray:none;stroke-opacity:1"
     d="m 238.10593,334.01335 c -20.74897,-2.96085 -41.38454,-18.81246 -50.07697,-38.46759 -3.97859,-8.99629 -6.89878,-21.42139 -6.90455,-29.37813 -0.0111,-15.26632 6.58521,-30.12196 19.41276,-43.71984 7.76754,-8.234 17.58598,-14.81445 27.12646,-18.18053 l 3.11056,-1.09747 v 9.80775 c 0,22.4773 7.6368,43.2047 22.45259,60.93962 3.17915,3.80554 8.03613,8.71635 10.79327,10.91291 2.75716,2.19656 5.013,4.27473 5.013,4.61815 0,0.34342 -0.86697,1.65986 -1.92661,2.9254 -7.37366,8.80658 -14.88738,23.9004 -17.82874,35.81502 -1.89618,7.68085 -1.09428,7.26276 -11.17177,5.82471 z"
     id="path1864"
     transform="matrix(0.75146312,0,0,0.75146312,0,-4.49843)" />
  <path
     style="fill:#6d071a;fill-opacity:1;stroke:#6d071a;stroke-width:3.25607;stroke-dasharray:none;stroke-opacity:1"
     d="m 288.25735,269.54751 c -4.61826,-2.78723 -15.66654,-14.10818 -19.74585,-20.23317 -4.00624,-6.01529 -6.69901,-12.09624 -8.93418,-20.17565 -2.25163,-8.13888 -2.07712,-25.91539 0.34223,-34.86229 6.88694,-25.46824 27.44684,-43.7263 52.17556,-46.3341 33.52715,-3.53564 64.70107,17.66302 72.62883,49.38853 1.43986,5.76206 1.64796,8.47818 1.30974,17.09438 -0.22117,5.63412 -0.99615,12.4417 -1.72219,15.12796 -2.05477,7.60237 -8.89838,20.55806 -14.23207,26.94286 l -4.82711,5.77838 -5.64774,-1.43426 c -8.78947,-2.23211 -21.00686,-3.43893 -28.70612,-2.83555 -10.82931,0.84867 -17.62511,2.67721 -26.85702,7.22642 -13.71772,6.75968 -12.35389,6.38671 -15.78408,4.31649 z"
     id="path1866"
     transform="matrix(0.75146312,0,0,0.75146312,0,-4.49843)" />
  <path
     style="fill:#6d071a;fill-opacity:1;stroke:#6d071a;stroke-width:3.25607;stroke-dasharray:none;stroke-opacity:1"
     d="m 326.92667,417.948 c -23.17741,-4.13123 -42.23351,-21.41956 -49.74199,-45.12761 -2.31462,-7.30842 -3.12878,-22.48779 -1.65274,-30.8139 2.64936,-14.94457 9.23167,-27.61885 19.98261,-38.47661 6.31861,-6.38139 8.43547,-7.94589 15.05934,-11.12985 10.63277,-5.11094 18.04633,-6.60423 30.00316,-6.04342 18.19357,0.85332 29.56439,5.67889 41.65877,17.67923 13.41599,13.31167 20.3497,30.12097 20.26764,49.13453 -0.0399,9.24579 -1.54275,15.31086 -5.9681,24.08556 -5.61408,11.13169 -9.00688,15.93496 -16.75599,23.72179 -11.63433,11.69094 -23.53398,16.89381 -39.92672,17.45707 -4.70096,0.16153 -10.51765,-0.0576 -12.92598,-0.48679 z"
     id="path1868"
     transform="matrix(0.75146312,0,0,0.75146312,0,-4.49843)" />
  <path
     style="fill:#6d071a;fill-opacity:1;stroke:#6d071a;stroke-width:3.25607;stroke-dasharray:none;stroke-opacity:1"
     d="m 429.39139,349.87923 c -0.01,-16.65111 -6.53984,-37.18714 -16.48543,-51.84447 -5.06805,-7.46904 -14.64151,-17.48659 -20.90204,-21.87163 l -1.8086,-1.2668 4.15565,-5.15712 c 7.29956,-9.05867 14.70345,-25.46011 17.1834,-38.06543 0.53457,-2.71715 1.41097,-5.54068 1.94755,-6.2745 1.48776,-2.03464 11.00188,-2.46743 17.55416,-0.79854 29.82665,7.59699 49.77396,37.18521 47.74926,70.82738 -0.64853,10.77588 -2.29013,17.02764 -7.09447,27.0181 -3.11883,6.48551 -5.26518,9.62234 -10.10241,14.76435 -6.29467,6.69126 -11.72765,10.15608 -23.6466,15.08032 -9.13267,3.7731 -8.54672,3.93837 -8.55047,-2.41166 z"
     id="path1870"
     transform="matrix(0.75146312,0,0,0.75146312,0,-4.49843)" />
  <path
     style="fill:#6d071a;fill-opacity:1;stroke:#6d071a;stroke-width:3.25607;stroke-dasharray:none;stroke-opacity:1"
     d="m 422.0685,518.8571 c -7.21873,-0.74077 -17.55612,-4.23234 -24.04966,-8.12305 -9.912,-5.93894 -20.71316,-17.81285 -26.23006,-28.8352 -5.13198,-10.25331 -8.13393,-25.14762 -7.07031,-35.0796 l 0.53607,-5.00575 7.51281,-2.97351 c 12.09821,-4.78838 19.42234,-9.81045 29.22196,-20.03714 8.85765,-9.24366 14.87062,-17.89512 18.95716,-27.27551 2.64331,-6.06755 3.39127,-6.34033 14.14632,-5.15923 26.5492,2.9156 49.57504,23.5504 56.64145,50.75973 2.20202,8.47889 2.05728,23.26437 -0.30909,31.57455 -4.76071,16.71858 -14.41794,30.54787 -27.5437,39.44296 -6.83383,4.63116 -10.66849,6.43467 -18.35103,8.63082 -8.06129,2.30442 -15.15382,2.93348 -23.46192,2.08093 z"
     id="path1872"
     transform="matrix(0.75146312,0,0,0.75146312,0,-4.49843)" />
  <path
     style="fill:#6d071a;fill-opacity:1;stroke:#6d071a;stroke-width:3.25607;stroke-dasharray:none;stroke-opacity:1"
     d="m 306.51797,555.31466 -6.87909,-1.7822 -0.16577,-7.32989 c -0.3302,-14.60034 -4.2852,-30.15546 -11.48588,-45.17429 -3.31843,-6.92143 -4.65736,-8.67978 -12.75543,-16.75113 -4.97629,-4.95987 -10.45616,-10.10166 -12.17747,-11.4262 l -3.12967,-2.40825 2.05898,-5.06717 c 4.14211,-10.19381 10.7477,-19.25089 19.57174,-26.83527 7.60881,-6.53988 7.6277,-6.54256 16.22707,-2.30699 9.57741,4.71729 19.85238,7.66289 30.87745,8.85185 l 8.75069,0.94368 v 6.02729 c 0,14.6803 4.4603,32.49969 12.05429,48.15817 3.24886,6.69902 4.84357,8.8323 11.92492,15.9522 4.49599,4.52047 9.36502,8.834 10.82008,9.58562 1.53254,0.79165 2.64556,1.99737 2.64556,2.86591 0,2.29589 -11.08056,13.26013 -17.73107,17.54494 -3.2603,2.10055 -7.98069,4.72706 -10.48975,5.83669 -12.07731,5.34117 -27.40665,6.6079 -40.11665,3.31504 z"
     id="path1874"
     transform="matrix(0.75146312,0,0,0.75146312,0,-4.49843)" />
  <path
     style="fill:#6d071a;fill-opacity:1;stroke:#6d071a;stroke-width:3.25607;stroke-dasharray:none;stroke-opacity:1"
     d="m 229.55317,456.88324 c -5.82451,-1.97189 -27.26776,-2.95322 -34.59578,-1.58323 -4.13274,0.77262 -4.75212,0.67723 -8.05266,-1.2402 -8.87682,-5.15694 -20.91391,-19.12285 -25.56989,-29.66719 -4.40748,-9.98159 -5.02003,-13.28679 -5.03204,-27.15168 -0.01,-11.4026 0.22632,-13.78446 1.89695,-19.12943 3.44182,-11.01161 8.61272,-19.80116 16.47282,-28.00062 3.90638,-4.07505 8.39242,-8.09296 9.96896,-8.92871 l 2.86644,-1.51952 4.95124,3.80988 c 13.06632,10.05431 30.10568,16.46807 47.77714,17.98373 l 6.61309,0.5672 0.53987,5.26942 c 1.12406,10.9715 9.25105,30.26938 17.19393,40.82772 l 4.30447,5.72185 -4.29278,3.31186 c -11.77132,9.08151 -23.94995,25.78039 -28.07285,38.49243 -0.54452,1.67892 -1.23636,3.016 -1.53742,2.97129 -0.30106,-0.0447 -2.74523,-0.82536 -5.43149,-1.7348 z"
     id="path1876"
     transform="matrix(0.75146312,0,0,0.75146312,0,-4.49843)" />
  <path
     style="fill:#6d071a;fill-opacity:1;stroke:#6d071a;stroke-width:3.25607;stroke-dasharray:none;stroke-opacity:1"
     d="m 196.17842,613.03212 c -11.77998,-2.29353 -22.13041,-7.69418 -31.13027,-16.24317 -16.41131,-15.58913 -24.76306,-36.25211 -22.20479,-54.93662 2.47754,-18.09493 13.82603,-37.96494 27.85269,-48.76712 9.80015,-7.54727 19.74422,-10.63358 36.55075,-11.34416 15.98348,-0.67579 20.90818,0.54949 32.01767,7.9661 21.30894,14.22566 33.03716,35.36604 33.01895,59.51739 -0.0137,18.2356 -7.06989,34.04898 -21.06982,47.21911 -5.1466,4.84155 -8.38716,7.0697 -14.93085,10.26618 -4.59669,2.2454 -10.73862,4.67102 -13.64874,5.39025 -7.47325,1.84704 -19.56758,2.27312 -26.45559,0.93204 z"
     id="path1878"
     transform="matrix(0.75146312,0,0,0.75146312,0,-4.49843)" />
  <path
     style="fill:#6d071a;fill-opacity:1;stroke:#6d071a;stroke-width:3.25607;stroke-dasharray:none;stroke-opacity:1"
     d="M 93.612107,516.16593 C 69.811445,510.72147 51.476874,491.60268 45.042,465.51835 c -2.439374,-9.88822 -2.414678,-24.03725 0.05808,-33.27462 3.476944,-12.98867 10.188408,-24.12316 18.224212,-30.23444 l 4.791457,-3.64393 5.069845,3.30313 c 5.319634,3.46588 7.387116,4.26259 20.097042,7.74449 11.678494,3.19934 27.460964,3.96985 34.570814,1.68776 1.52574,-0.48973 1.7723,-0.0419 2.67547,4.85979 3.31962,18.01623 10.80223,32.39894 24.44044,46.97824 l 4.8142,5.14638 -3.37406,2.37622 c -17.56148,12.36792 -31.37976,29.04428 -33.93354,40.95217 -0.66212,3.08733 -1.32113,4.23854 -2.66165,4.64959 -3.78362,1.16017 -21.279788,1.22881 -26.202203,0.1028 z"
     id="path1880"
     transform="matrix(0.75146312,0,0,0.75146312,0,-4.49843)" />
  <path
     style="fill:#6d071a;fill-opacity:1;stroke:#6d071a;stroke-width:3.25607;stroke-dasharray:none;stroke-opacity:1"
     d="M 84.096386,650.72438 C 62.952419,648.44621 44.43546,634.93577 34.56337,614.58383 c -5.987555,-12.34372 -6.869067,-16.42821 -6.851563,-31.74671 0.01446,-12.65316 0.09328,-13.25285 2.765986,-21.04475 4.46959,-13.03045 14.946197,-28.04988 21.442922,-30.74091 3.284341,-1.36042 7.406335,-0.20231 19.602313,5.50746 12.235833,5.72842 20.697036,7.58372 34.706362,7.61011 l 10.17523,0.0192 0.19891,7.89691 c 0.55011,21.83962 8.67886,41.94722 24.42514,60.41901 2.35048,2.75732 4.2736,5.69885 4.2736,6.53673 0,1.72464 -4.25172,7.65844 -9.25423,12.91544 -12.73894,13.38696 -33.22082,20.78626 -51.951654,18.7681 z"
     id="path1882"
     transform="matrix(0.75146312,0,0,0.75146312,0,-4.49843)" />
</svg>
